<?xml version="1.0" encoding="UTF-8" standalone="no"?>
<!DOCTYPE svg PUBLIC "-//W3C//DTD SVG 1.1//EN"
 "http://www.w3.org/Graphics/SVG/1.1/DTD/svg11.dtd">
<!-- Generated by graphviz version 10.0.1 (20240210.2158)
 -->
<!-- Title: packages_pydasa Pages: 1 -->
<svg width="7479pt" height="116pt"
 viewBox="0.00 0.00 7479.12 116.00" xmlns="http://www.w3.org/2000/svg" xmlns:xlink="http://www.w3.org/1999/xlink">
<g id="graph0" class="graph" transform="scale(1 1) rotate(0) translate(4 112)">
<title>packages_pydasa</title>
<polygon fill="white" stroke="none" points="-4,4 -4,-112 7475.12,-112 7475.12,4 -4,4"/>
<!-- src.pydasa -->
<g id="node1" class="node">
<title>src.pydasa</title>
<polygon fill="#77aadd" stroke="#77aadd" points="1788.62,-36 1711.88,-36 1711.88,0 1788.62,0 1788.62,-36"/>
<text text-anchor="middle" x="1750.25" y="-12.57" font-family="Times New Roman,serif" font-size="14.00">src.pydasa</text>
</g>
<!-- src.pydasa._version -->
<g id="node2" class="node">
<title>src.pydasa._version</title>
<polygon fill="#77aadd" stroke="#77aadd" points="128.5,-108 0,-108 0,-72 128.5,-72 128.5,-108"/>
<text text-anchor="middle" x="64.25" y="-84.58" font-family="Times New Roman,serif" font-size="14.00">src.pydasa._version</text>
</g>
<!-- src.pydasa&#45;&gt;src.pydasa._version -->
<g id="edge1" class="edge">
<title>src.pydasa&#45;&gt;src.pydasa._version</title>
<path fill="none" stroke="black" d="M1711.53,-19.24C1499.67,-20.73 478.46,-29.9 139.65,-71.88"/>
<polygon fill="black" stroke="black" points="129.82,-73.14 139.17,-67.4 133.57,-72.66 139.74,-71.87 139.74,-71.87 139.74,-71.87 133.57,-72.66 140.31,-76.33 129.82,-73.14"/>
</g>
<!-- src.pydasa.analysis.scenario -->
<g id="node4" class="node">
<title>src.pydasa.analysis.scenario</title>
<polygon fill="#77aadd" stroke="#77aadd" points="320.38,-108 146.12,-108 146.12,-72 320.38,-72 320.38,-108"/>
<text text-anchor="middle" x="233.25" y="-84.58" font-family="Times New Roman,serif" font-size="14.00">src.pydasa.analysis.scenario</text>
</g>
<!-- src.pydasa&#45;&gt;src.pydasa.analysis.scenario -->
<g id="edge2" class="edge">
<title>src.pydasa&#45;&gt;src.pydasa.analysis.scenario</title>
<path fill="none" stroke="black" d="M1711.39,-19.72C1515.07,-23.49 630.3,-41.77 331.62,-71.86"/>
<polygon fill="black" stroke="black" points="322.03,-72.85 331.51,-67.35 325.79,-72.46 331.97,-71.82 331.97,-71.82 331.97,-71.82 325.79,-72.46 332.44,-76.3 322.03,-72.85"/>
</g>
<!-- src.pydasa.analysis.simulation -->
<g id="node5" class="node">
<title>src.pydasa.analysis.simulation</title>
<polygon fill="#77aadd" stroke="#77aadd" points="522.25,-108 338.25,-108 338.25,-72 522.25,-72 522.25,-108"/>
<text text-anchor="middle" x="430.25" y="-84.58" font-family="Times New Roman,serif" font-size="14.00">src.pydasa.analysis.simulation</text>
</g>
<!-- src.pydasa&#45;&gt;src.pydasa.analysis.simulation -->
<g id="edge3" class="edge">
<title>src.pydasa&#45;&gt;src.pydasa.analysis.simulation</title>
<path fill="none" stroke="black" d="M1711.43,-18.95C1561.11,-19.12 1002.74,-23.13 533.72,-71.82"/>
<polygon fill="black" stroke="black" points="523.87,-72.85 533.34,-67.33 527.63,-72.46 533.81,-71.81 533.81,-71.81 533.81,-71.81 527.63,-72.46 534.28,-76.28 523.87,-72.85"/>
</g>
<!-- src.pydasa.core.io -->
<g id="node13" class="node">
<title>src.pydasa.core.io</title>
<polygon fill="#77aadd" stroke="#77aadd" points="660,-108 540.5,-108 540.5,-72 660,-72 660,-108"/>
<text text-anchor="middle" x="600.25" y="-84.58" font-family="Times New Roman,serif" font-size="14.00">src.pydasa.core.io</text>
</g>
<!-- src.pydasa&#45;&gt;src.pydasa.core.io -->
<g id="edge4" class="edge">
<title>src.pydasa&#45;&gt;src.pydasa.core.io</title>
<path fill="none" stroke="black" d="M1711.61,-19.9C1546.41,-23.88 898.03,-41.09 671.13,-71.95"/>
<polygon fill="black" stroke="black" points="661.53,-73.31 670.8,-67.45 665.28,-72.78 671.43,-71.91 671.43,-71.91 671.43,-71.91 665.28,-72.78 672.06,-76.36 661.53,-73.31"/>
</g>
<!-- src.pydasa.dimensional.buckingham -->
<g id="node16" class="node">
<title>src.pydasa.dimensional.buckingham</title>
<polygon fill="#77aadd" stroke="#77aadd" points="896.12,-108 678.38,-108 678.38,-72 896.12,-72 896.12,-108"/>
<text text-anchor="middle" x="787.25" y="-84.58" font-family="Times New Roman,serif" font-size="14.00">src.pydasa.dimensional.buckingham</text>
</g>
<!-- src.pydasa&#45;&gt;src.pydasa.dimensional.buckingham -->
<g id="edge5" class="edge">
<title>src.pydasa&#45;&gt;src.pydasa.dimensional.buckingham</title>
<path fill="none" stroke="black" d="M1711.41,-20.32C1592.64,-24.61 1223.64,-39.66 907.26,-71.84"/>
<polygon fill="black" stroke="black" points="897.71,-72.82 907.2,-67.32 901.48,-72.43 907.66,-71.8 907.66,-71.8 907.66,-71.8 901.48,-72.43 908.12,-76.28 897.71,-72.82"/>
</g>
<!-- src.pydasa.dimensional.fundamental -->
<g id="node17" class="node">
<title>src.pydasa.dimensional.fundamental</title>
<polygon fill="#77aadd" stroke="#77aadd" points="1132.12,-108 914.38,-108 914.38,-72 1132.12,-72 1132.12,-108"/>
<text text-anchor="middle" x="1023.25" y="-84.58" font-family="Times New Roman,serif" font-size="14.00">src.pydasa.dimensional.fundamental</text>
</g>
<!-- src.pydasa&#45;&gt;src.pydasa.dimensional.fundamental -->
<g id="edge6" class="edge">
<title>src.pydasa&#45;&gt;src.pydasa.dimensional.fundamental</title>
<path fill="none" stroke="black" d="M1711.7,-21.6C1616.9,-28.15 1364.63,-46.56 1143.36,-71.79"/>
<polygon fill="black" stroke="black" points="1133.72,-72.9 1143.14,-67.29 1137.48,-72.47 1143.66,-71.76 1143.66,-71.76 1143.66,-71.76 1137.48,-72.47 1144.17,-76.23 1133.72,-72.9"/>
</g>
<!-- src.pydasa.dimensional.model -->
<g id="node18" class="node">
<title>src.pydasa.dimensional.model</title>
<polygon fill="#77aadd" stroke="#77aadd" points="1334.62,-108 1149.88,-108 1149.88,-72 1334.62,-72 1334.62,-108"/>
<text text-anchor="middle" x="1242.25" y="-84.58" font-family="Times New Roman,serif" font-size="14.00">src.pydasa.dimensional.model</text>
</g>
<!-- src.pydasa&#45;&gt;src.pydasa.dimensional.model -->
<g id="edge7" class="edge">
<title>src.pydasa&#45;&gt;src.pydasa.dimensional.model</title>
<path fill="none" stroke="black" d="M1711.46,-23.56C1640.84,-31.98 1486.32,-50.87 1345.91,-71.63"/>
<polygon fill="black" stroke="black" points="1336.17,-73.08 1345.4,-67.16 1339.91,-72.52 1346.06,-71.61 1346.06,-71.61 1346.06,-71.61 1339.91,-72.52 1346.72,-76.06 1336.17,-73.08"/>
</g>
<!-- src.pydasa.dimensional.vaschy -->
<g id="node19" class="node">
<title>src.pydasa.dimensional.vaschy</title>
<polygon fill="#77aadd" stroke="#77aadd" points="1541.88,-108 1352.62,-108 1352.62,-72 1541.88,-72 1541.88,-108"/>
<text text-anchor="middle" x="1447.25" y="-84.58" font-family="Times New Roman,serif" font-size="14.00">src.pydasa.dimensional.vaschy</text>
</g>
<!-- src.pydasa&#45;&gt;src.pydasa.dimensional.vaschy -->
<g id="edge8" class="edge">
<title>src.pydasa&#45;&gt;src.pydasa.dimensional.vaschy</title>
<path fill="none" stroke="black" d="M1711.57,-27.94C1666.96,-38.24 1592.25,-55.5 1533.62,-69.05"/>
<polygon fill="black" stroke="black" points="1524.05,-71.26 1532.78,-64.62 1527.74,-70.41 1533.8,-69.01 1533.8,-69.01 1533.8,-69.01 1527.74,-70.41 1534.81,-73.39 1524.05,-71.26"/>
</g>
<!-- src.pydasa.elements.parameter -->
<g id="node21" class="node">
<title>src.pydasa.elements.parameter</title>
<polygon fill="#77aadd" stroke="#77aadd" points="1746.75,-108 1559.75,-108 1559.75,-72 1746.75,-72 1746.75,-108"/>
<text text-anchor="middle" x="1653.25" y="-84.58" font-family="Times New Roman,serif" font-size="14.00">src.pydasa.elements.parameter</text>
</g>
<!-- src.pydasa&#45;&gt;src.pydasa.elements.parameter -->
<g id="edge9" class="edge">
<title>src.pydasa&#45;&gt;src.pydasa.elements.parameter</title>
<path fill="none" stroke="black" d="M1726.27,-36.3C1714.15,-45.05 1699.25,-55.81 1686.08,-65.31"/>
<polygon fill="black" stroke="black" points="1678.28,-70.94 1683.75,-61.44 1681.34,-68.73 1686.38,-65.09 1686.38,-65.09 1686.38,-65.09 1681.34,-68.73 1689.02,-68.74 1678.28,-70.94"/>
</g>
<!-- src.pydasa.structs.lists.arlt -->
<g id="node31" class="node">
<title>src.pydasa.structs.lists.arlt</title>
<polygon fill="#77aadd" stroke="#77aadd" points="1929.5,-108 1765,-108 1765,-72 1929.5,-72 1929.5,-108"/>
<text text-anchor="middle" x="1847.25" y="-84.58" font-family="Times New Roman,serif" font-size="14.00">src.pydasa.structs.lists.arlt</text>
</g>
<!-- src.pydasa&#45;&gt;src.pydasa.structs.lists.arlt -->
<g id="edge10" class="edge">
<title>src.pydasa&#45;&gt;src.pydasa.structs.lists.arlt</title>
<path fill="none" stroke="black" d="M1774.23,-36.3C1786.35,-45.05 1801.25,-55.81 1814.42,-65.31"/>
<polygon fill="black" stroke="black" points="1822.22,-70.94 1811.48,-68.74 1819.16,-68.73 1814.12,-65.09 1814.12,-65.09 1814.12,-65.09 1819.16,-68.73 1816.75,-61.44 1822.22,-70.94"/>
</g>
<!-- src.pydasa.structs.lists.ndlt -->
<g id="node33" class="node">
<title>src.pydasa.structs.lists.ndlt</title>
<polygon fill="#77aadd" stroke="#77aadd" points="2115.38,-108 1947.12,-108 1947.12,-72 2115.38,-72 2115.38,-108"/>
<text text-anchor="middle" x="2031.25" y="-84.58" font-family="Times New Roman,serif" font-size="14.00">src.pydasa.structs.lists.ndlt</text>
</g>
<!-- src.pydasa&#45;&gt;src.pydasa.structs.lists.ndlt -->
<g id="edge11" class="edge">
<title>src.pydasa&#45;&gt;src.pydasa.structs.lists.ndlt</title>
<path fill="none" stroke="black" d="M1789.03,-28.66C1830.51,-38.99 1897.49,-55.68 1950.51,-68.89"/>
<polygon fill="black" stroke="black" points="1960.08,-71.27 1949.28,-73.22 1956.41,-70.36 1950.37,-68.85 1950.37,-68.85 1950.37,-68.85 1956.41,-70.36 1951.46,-64.49 1960.08,-71.27"/>
</g>
<!-- src.pydasa.structs.lists.sllt -->
<g id="node34" class="node">
<title>src.pydasa.structs.lists.sllt</title>
<polygon fill="#77aadd" stroke="#77aadd" points="2296.75,-108 2133.75,-108 2133.75,-72 2296.75,-72 2296.75,-108"/>
<text text-anchor="middle" x="2215.25" y="-84.58" font-family="Times New Roman,serif" font-size="14.00">src.pydasa.structs.lists.sllt</text>
</g>
<!-- src.pydasa&#45;&gt;src.pydasa.structs.lists.sllt -->
<g id="edge12" class="edge">
<title>src.pydasa&#45;&gt;src.pydasa.structs.lists.sllt</title>
<path fill="none" stroke="black" d="M1789.1,-23.93C1855.29,-32.46 1994.39,-50.93 2122.64,-71.78"/>
<polygon fill="black" stroke="black" points="2132.22,-73.34 2121.63,-76.17 2128.49,-72.73 2122.36,-71.73 2122.36,-71.73 2122.36,-71.73 2128.49,-72.73 2123.08,-67.29 2132.22,-73.34"/>
</g>
<!-- src.pydasa.structs.tables.htme -->
<g id="node36" class="node">
<title>src.pydasa.structs.tables.htme</title>
<polygon fill="#77aadd" stroke="#77aadd" points="2499.62,-108 2314.88,-108 2314.88,-72 2499.62,-72 2499.62,-108"/>
<text text-anchor="middle" x="2407.25" y="-84.58" font-family="Times New Roman,serif" font-size="14.00">src.pydasa.structs.tables.htme</text>
</g>
<!-- src.pydasa&#45;&gt;src.pydasa.structs.tables.htme -->
<g id="edge13" class="edge">
<title>src.pydasa&#45;&gt;src.pydasa.structs.tables.htme</title>
<path fill="none" stroke="black" d="M1789.04,-21.77C1878.01,-28.31 2103.75,-46.06 2303.46,-71.82"/>
<polygon fill="black" stroke="black" points="2313.24,-73.09 2302.75,-76.27 2309.49,-72.61 2303.33,-71.8 2303.33,-71.8 2303.33,-71.8 2309.49,-72.61 2303.91,-67.34 2313.24,-73.09"/>
</g>
<!-- src.pydasa.structs.tables.scht -->
<g id="node37" class="node">
<title>src.pydasa.structs.tables.scht</title>
<polygon fill="#77aadd" stroke="#77aadd" points="2698.75,-108 2517.75,-108 2517.75,-72 2698.75,-72 2698.75,-108"/>
<text text-anchor="middle" x="2608.25" y="-84.58" font-family="Times New Roman,serif" font-size="14.00">src.pydasa.structs.tables.scht</text>
</g>
<!-- src.pydasa&#45;&gt;src.pydasa.structs.tables.scht -->
<g id="edge14" class="edge">
<title>src.pydasa&#45;&gt;src.pydasa.structs.tables.scht</title>
<path fill="none" stroke="black" d="M1788.68,-21.46C1927.31,-30.38 2398.69,-60.96 2506.26,-71.94"/>
<polygon fill="black" stroke="black" points="2516.08,-73.01 2505.64,-76.4 2512.32,-72.6 2506.14,-71.92 2506.14,-71.92 2506.14,-71.92 2512.32,-72.6 2506.63,-67.45 2516.08,-73.01"/>
</g>
<!-- src.pydasa.workflows.basic -->
<g id="node50" class="node">
<title>src.pydasa.workflows.basic</title>
<polygon fill="#77aadd" stroke="#77aadd" points="2889.62,-108 2716.88,-108 2716.88,-72 2889.62,-72 2889.62,-108"/>
<text text-anchor="middle" x="2803.25" y="-84.58" font-family="Times New Roman,serif" font-size="14.00">src.pydasa.workflows.basic</text>
</g>
<!-- src.pydasa&#45;&gt;src.pydasa.workflows.basic -->
<g id="edge15" class="edge">
<title>src.pydasa&#45;&gt;src.pydasa.workflows.basic</title>
<path fill="none" stroke="black" d="M1788.72,-21.63C1840.11,-25.1 1934.01,-31.33 2014.25,-36 2318.54,-53.7 2398.95,-37.43 2705.46,-71.89"/>
<polygon fill="black" stroke="black" points="2715.25,-73 2704.8,-76.34 2711.49,-72.57 2705.31,-71.87 2705.31,-71.87 2705.31,-71.87 2711.49,-72.57 2705.82,-67.4 2715.25,-73"/>
</g>
<!-- src.pydasa.workflows.influence -->
<g id="node51" class="node">
<title>src.pydasa.workflows.influence</title>
<polygon fill="#77aadd" stroke="#77aadd" points="3100.75,-108 2907.75,-108 2907.75,-72 3100.75,-72 3100.75,-108"/>
<text text-anchor="middle" x="3004.25" y="-84.58" font-family="Times New Roman,serif" font-size="14.00">src.pydasa.workflows.influence</text>
</g>
<!-- src.pydasa&#45;&gt;src.pydasa.workflows.influence -->
<g id="edge16" class="edge">
<title>src.pydasa&#45;&gt;src.pydasa.workflows.influence</title>
<path fill="none" stroke="black" d="M1788.71,-21.76C1840.09,-25.39 1933.99,-31.78 2014.25,-36 2403.28,-56.44 2505.11,-33.24 2896.2,-71.87"/>
<polygon fill="black" stroke="black" points="2906.05,-72.85 2895.65,-76.34 2902.29,-72.48 2896.1,-71.86 2896.1,-71.86 2896.1,-71.86 2902.29,-72.48 2896.55,-67.39 2906.05,-72.85"/>
</g>
<!-- src.pydasa.workflows.phenomena -->
<g id="node52" class="node">
<title>src.pydasa.workflows.phenomena</title>
<polygon fill="#77aadd" stroke="#77aadd" points="3325.88,-108 3118.62,-108 3118.62,-72 3325.88,-72 3325.88,-108"/>
<text text-anchor="middle" x="3222.25" y="-84.58" font-family="Times New Roman,serif" font-size="14.00">src.pydasa.workflows.phenomena</text>
</g>
<!-- src.pydasa&#45;&gt;src.pydasa.workflows.phenomena -->
<g id="edge17" class="edge">
<title>src.pydasa&#45;&gt;src.pydasa.workflows.phenomena</title>
<path fill="none" stroke="black" d="M1788.7,-21.86C1840.08,-25.59 1933.97,-32.1 2014.25,-36 2496.92,-59.47 2622.45,-28.19 3107.1,-71.88"/>
<polygon fill="black" stroke="black" points="3117.03,-72.78 3106.67,-76.35 3113.27,-72.44 3107.08,-71.87 3107.08,-71.87 3107.08,-71.87 3113.27,-72.44 3107.48,-67.39 3117.03,-72.78"/>
</g>
<!-- src.pydasa.workflows.practical -->
<g id="node53" class="node">
<title>src.pydasa.workflows.practical</title>
<polygon fill="#77aadd" stroke="#77aadd" points="3534.62,-108 3343.88,-108 3343.88,-72 3534.62,-72 3534.62,-108"/>
<text text-anchor="middle" x="3439.25" y="-84.58" font-family="Times New Roman,serif" font-size="14.00">src.pydasa.workflows.practical</text>
</g>
<!-- src.pydasa&#45;&gt;src.pydasa.workflows.practical -->
<g id="edge18" class="edge">
<title>src.pydasa&#45;&gt;src.pydasa.workflows.practical</title>
<path fill="none" stroke="black" d="M1788.7,-21.92C1840.07,-25.73 1933.96,-32.32 2014.25,-36 2597.38,-62.71 2748.71,-17.06 3332.73,-71.84"/>
<polygon fill="black" stroke="black" points="3342.33,-72.74 3331.95,-76.28 3338.57,-72.39 3332.37,-71.8 3332.37,-71.8 3332.37,-71.8 3338.57,-72.39 3332.8,-67.32 3342.33,-72.74"/>
</g>
<!-- src.pydasa.analysis -->
<g id="node3" class="node">
<title>src.pydasa.analysis</title>
<polygon fill="#77aadd" stroke="#77aadd" points="2147.25,-36 2023.25,-36 2023.25,0 2147.25,0 2147.25,-36"/>
<text text-anchor="middle" x="2085.25" y="-12.57" font-family="Times New Roman,serif" font-size="14.00">src.pydasa.analysis</text>
</g>
<!-- src.pydasa.context -->
<g id="node6" class="node">
<title>src.pydasa.context</title>
<polygon fill="#77aadd" stroke="#77aadd" points="2365.12,-36 2243.38,-36 2243.38,0 2365.12,0 2365.12,-36"/>
<text text-anchor="middle" x="2304.25" y="-12.57" font-family="Times New Roman,serif" font-size="14.00">src.pydasa.context</text>
</g>
<!-- src.pydasa.context.conversion -->
<g id="node7" class="node">
<title>src.pydasa.context.conversion</title>
<polygon fill="#77aadd" stroke="#77aadd" points="2608.75,-36 2421.75,-36 2421.75,0 2608.75,0 2608.75,-36"/>
<text text-anchor="middle" x="2515.25" y="-12.57" font-family="Times New Roman,serif" font-size="14.00">src.pydasa.context.conversion</text>
</g>
<!-- src.pydasa.context.system -->
<g id="node8" class="node">
<title>src.pydasa.context.system</title>
<polygon fill="#77aadd" stroke="#77aadd" points="2810.5,-36 2646,-36 2646,0 2810.5,0 2810.5,-36"/>
<text text-anchor="middle" x="2728.25" y="-12.57" font-family="Times New Roman,serif" font-size="14.00">src.pydasa.context.system</text>
</g>
<!-- src.pydasa.context.units -->
<g id="node9" class="node">
<title>src.pydasa.context.units</title>
<polygon fill="#77aadd" stroke="#77aadd" points="2990.12,-36 2838.38,-36 2838.38,0 2990.12,0 2990.12,-36"/>
<text text-anchor="middle" x="2914.25" y="-12.57" font-family="Times New Roman,serif" font-size="14.00">src.pydasa.context.units</text>
</g>
<!-- src.pydasa.core -->
<g id="node10" class="node">
<title>src.pydasa.core</title>
<polygon fill="#77aadd" stroke="#77aadd" points="3118.88,-36 3013.62,-36 3013.62,0 3118.88,0 3118.88,-36"/>
<text text-anchor="middle" x="3066.25" y="-12.57" font-family="Times New Roman,serif" font-size="14.00">src.pydasa.core</text>
</g>
<!-- src.pydasa.core.basic -->
<g id="node11" class="node">
<title>src.pydasa.core.basic</title>
<polygon fill="#77aadd" stroke="#77aadd" points="3277.38,-36 3139.12,-36 3139.12,0 3277.38,0 3277.38,-36"/>
<text text-anchor="middle" x="3208.25" y="-12.57" font-family="Times New Roman,serif" font-size="14.00">src.pydasa.core.basic</text>
</g>
<!-- src.pydasa.core.constants -->
<g id="node12" class="node">
<title>src.pydasa.core.constants</title>
<polygon fill="#77aadd" stroke="#77aadd" points="3458.38,-36 3296.12,-36 3296.12,0 3458.38,0 3458.38,-36"/>
<text text-anchor="middle" x="3377.25" y="-12.57" font-family="Times New Roman,serif" font-size="14.00">src.pydasa.core.constants</text>
</g>
<!-- src.pydasa.core.setup -->
<g id="node14" class="node">
<title>src.pydasa.core.setup</title>
<polygon fill="#77aadd" stroke="#77aadd" points="3616.75,-36 3477.75,-36 3477.75,0 3616.75,0 3616.75,-36"/>
<text text-anchor="middle" x="3547.25" y="-12.57" font-family="Times New Roman,serif" font-size="14.00">src.pydasa.core.setup</text>
</g>
<!-- src.pydasa.dimensional -->
<g id="node15" class="node">
<title>src.pydasa.dimensional</title>
<polygon fill="#77aadd" stroke="#77aadd" points="3781.5,-36 3635,-36 3635,0 3781.5,0 3781.5,-36"/>
<text text-anchor="middle" x="3708.25" y="-12.57" font-family="Times New Roman,serif" font-size="14.00">src.pydasa.dimensional</text>
</g>
<!-- src.pydasa.elements -->
<g id="node20" class="node">
<title>src.pydasa.elements</title>
<polygon fill="#77aadd" stroke="#77aadd" points="3928.5,-36 3800,-36 3800,0 3928.5,0 3928.5,-36"/>
<text text-anchor="middle" x="3864.25" y="-12.57" font-family="Times New Roman,serif" font-size="14.00">src.pydasa.elements</text>
</g>
<!-- src.pydasa.elements.specs -->
<g id="node22" class="node">
<title>src.pydasa.elements.specs</title>
<polygon fill="#77aadd" stroke="#77aadd" points="4111.5,-36 3947,-36 3947,0 4111.5,0 4111.5,-36"/>
<text text-anchor="middle" x="4029.25" y="-12.57" font-family="Times New Roman,serif" font-size="14.00">src.pydasa.elements.specs</text>
</g>
<!-- src.pydasa.elements.specs.conceptual -->
<g id="node23" class="node">
<title>src.pydasa.elements.specs.conceptual</title>
<polygon fill="#77aadd" stroke="#77aadd" points="3781.75,-108 3552.75,-108 3552.75,-72 3781.75,-72 3781.75,-108"/>
<text text-anchor="middle" x="3667.25" y="-84.58" font-family="Times New Roman,serif" font-size="14.00">src.pydasa.elements.specs.conceptual</text>
</g>
<!-- src.pydasa.elements.specs&#45;&gt;src.pydasa.elements.specs.conceptual -->
<g id="edge19" class="edge">
<title>src.pydasa.elements.specs&#45;&gt;src.pydasa.elements.specs.conceptual</title>
<path fill="none" stroke="black" d="M3946.65,-34.97C3893.72,-45.21 3824.66,-58.56 3768.44,-69.43"/>
<polygon fill="black" stroke="black" points="3758.94,-71.27 3767.9,-64.95 3762.65,-70.55 3768.76,-69.37 3768.76,-69.37 3768.76,-69.37 3762.65,-70.55 3769.61,-73.79 3758.94,-71.27"/>
</g>
<!-- src.pydasa.elements.specs.numerical -->
<g id="node24" class="node">
<title>src.pydasa.elements.specs.numerical</title>
<polygon fill="#77aadd" stroke="#77aadd" points="4021,-108 3799.5,-108 3799.5,-72 4021,-72 4021,-108"/>
<text text-anchor="middle" x="3910.25" y="-84.58" font-family="Times New Roman,serif" font-size="14.00">src.pydasa.elements.specs.numerical</text>
</g>
<!-- src.pydasa.elements.specs&#45;&gt;src.pydasa.elements.specs.numerical -->
<g id="edge20" class="edge">
<title>src.pydasa.elements.specs&#45;&gt;src.pydasa.elements.specs.numerical</title>
<path fill="none" stroke="black" d="M3999.53,-36.48C3984.22,-45.49 3965.37,-56.58 3948.94,-66.24"/>
<polygon fill="black" stroke="black" points="3940.64,-71.12 3946.98,-62.17 3943.9,-69.2 3949.26,-66.05 3949.26,-66.05 3949.26,-66.05 3943.9,-69.2 3951.54,-69.93 3940.64,-71.12"/>
</g>
<!-- src.pydasa.elements.specs.statistical -->
<g id="node25" class="node">
<title>src.pydasa.elements.specs.statistical</title>
<polygon fill="#77aadd" stroke="#77aadd" points="4257.88,-108 4038.62,-108 4038.62,-72 4257.88,-72 4257.88,-108"/>
<text text-anchor="middle" x="4148.25" y="-84.58" font-family="Times New Roman,serif" font-size="14.00">src.pydasa.elements.specs.statistical</text>
</g>
<!-- src.pydasa.elements.specs&#45;&gt;src.pydasa.elements.specs.statistical -->
<g id="edge21" class="edge">
<title>src.pydasa.elements.specs&#45;&gt;src.pydasa.elements.specs.statistical</title>
<path fill="none" stroke="black" d="M4058.97,-36.48C4074.28,-45.49 4093.13,-56.58 4109.56,-66.24"/>
<polygon fill="black" stroke="black" points="4117.86,-71.12 4106.96,-69.93 4114.6,-69.2 4109.24,-66.05 4109.24,-66.05 4109.24,-66.05 4114.6,-69.2 4111.52,-62.17 4117.86,-71.12"/>
</g>
<!-- src.pydasa.elements.specs.symbolic -->
<g id="node26" class="node">
<title>src.pydasa.elements.specs.symbolic</title>
<polygon fill="#77aadd" stroke="#77aadd" points="4494.88,-108 4275.62,-108 4275.62,-72 4494.88,-72 4494.88,-108"/>
<text text-anchor="middle" x="4385.25" y="-84.58" font-family="Times New Roman,serif" font-size="14.00">src.pydasa.elements.specs.symbolic</text>
</g>
<!-- src.pydasa.elements.specs&#45;&gt;src.pydasa.elements.specs.symbolic -->
<g id="edge22" class="edge">
<title>src.pydasa.elements.specs&#45;&gt;src.pydasa.elements.specs.symbolic</title>
<path fill="none" stroke="black" d="M4111.82,-35.24C4163.62,-45.42 4230.73,-58.62 4285.5,-69.39"/>
<polygon fill="black" stroke="black" points="4295.08,-71.27 4284.4,-73.76 4291.37,-70.54 4285.27,-69.34 4285.27,-69.34 4285.27,-69.34 4291.37,-70.54 4286.14,-64.93 4295.08,-71.27"/>
</g>
<!-- src.pydasa.serialization -->
<g id="node27" class="node">
<title>src.pydasa.serialization</title>
<polygon fill="#77aadd" stroke="#77aadd" points="4274.75,-36 4129.75,-36 4129.75,0 4274.75,0 4274.75,-36"/>
<text text-anchor="middle" x="4202.25" y="-12.57" font-family="Times New Roman,serif" font-size="14.00">src.pydasa.serialization</text>
</g>
<!-- src.pydasa.serialization.parser -->
<g id="node28" class="node">
<title>src.pydasa.serialization.parser</title>
<polygon fill="#77aadd" stroke="#77aadd" points="4475.88,-36 4292.62,-36 4292.62,0 4475.88,0 4475.88,-36"/>
<text text-anchor="middle" x="4384.25" y="-12.57" font-family="Times New Roman,serif" font-size="14.00">src.pydasa.serialization.parser</text>
</g>
<!-- src.pydasa.structs -->
<g id="node29" class="node">
<title>src.pydasa.structs</title>
<polygon fill="#77aadd" stroke="#77aadd" points="4612.25,-36 4494.25,-36 4494.25,0 4612.25,0 4612.25,-36"/>
<text text-anchor="middle" x="4553.25" y="-12.57" font-family="Times New Roman,serif" font-size="14.00">src.pydasa.structs</text>
</g>
<!-- src.pydasa.structs.lists -->
<g id="node30" class="node">
<title>src.pydasa.structs.lists</title>
<polygon fill="#77aadd" stroke="#77aadd" points="4774,-36 4630.5,-36 4630.5,0 4774,0 4774,-36"/>
<text text-anchor="middle" x="4702.25" y="-12.57" font-family="Times New Roman,serif" font-size="14.00">src.pydasa.structs.lists</text>
</g>
<!-- src.pydasa.structs.lists.dllt -->
<g id="node32" class="node">
<title>src.pydasa.structs.lists.dllt</title>
<polygon fill="#77aadd" stroke="#77aadd" points="4956.5,-36 4792,-36 4792,0 4956.5,0 4956.5,-36"/>
<text text-anchor="middle" x="4874.25" y="-12.57" font-family="Times New Roman,serif" font-size="14.00">src.pydasa.structs.lists.dllt</text>
</g>
<!-- src.pydasa.structs.tables -->
<g id="node35" class="node">
<title>src.pydasa.structs.tables</title>
<polygon fill="#77aadd" stroke="#77aadd" points="5128.25,-36 4974.25,-36 4974.25,0 5128.25,0 5128.25,-36"/>
<text text-anchor="middle" x="5051.25" y="-12.57" font-family="Times New Roman,serif" font-size="14.00">src.pydasa.structs.tables</text>
</g>
<!-- src.pydasa.structs.tools -->
<g id="node38" class="node">
<title>src.pydasa.structs.tools</title>
<polygon fill="#77aadd" stroke="#77aadd" points="5296,-36 5146.5,-36 5146.5,0 5296,0 5296,-36"/>
<text text-anchor="middle" x="5221.25" y="-12.57" font-family="Times New Roman,serif" font-size="14.00">src.pydasa.structs.tools</text>
</g>
<!-- src.pydasa.structs.tools.hashing -->
<g id="node39" class="node">
<title>src.pydasa.structs.tools.hashing</title>
<polygon fill="#77aadd" stroke="#77aadd" points="5508.88,-36 5313.62,-36 5313.62,0 5508.88,0 5508.88,-36"/>
<text text-anchor="middle" x="5411.25" y="-12.57" font-family="Times New Roman,serif" font-size="14.00">src.pydasa.structs.tools.hashing</text>
</g>
<!-- src.pydasa.structs.tools.math -->
<g id="node40" class="node">
<title>src.pydasa.structs.tools.math</title>
<polygon fill="#77aadd" stroke="#77aadd" points="5707.38,-36 5527.12,-36 5527.12,0 5707.38,0 5707.38,-36"/>
<text text-anchor="middle" x="5617.25" y="-12.57" font-family="Times New Roman,serif" font-size="14.00">src.pydasa.structs.tools.math</text>
</g>
<!-- src.pydasa.structs.tools.memory -->
<g id="node41" class="node">
<title>src.pydasa.structs.tools.memory</title>
<polygon fill="#77aadd" stroke="#77aadd" points="5924.75,-36 5725.75,-36 5725.75,0 5924.75,0 5924.75,-36"/>
<text text-anchor="middle" x="5825.25" y="-12.57" font-family="Times New Roman,serif" font-size="14.00">src.pydasa.structs.tools.memory</text>
</g>
<!-- src.pydasa.structs.types -->
<g id="node42" class="node">
<title>src.pydasa.structs.types</title>
<polygon fill="#77aadd" stroke="#77aadd" points="6094.12,-36 5942.38,-36 5942.38,0 6094.12,0 6094.12,-36"/>
<text text-anchor="middle" x="6018.25" y="-12.57" font-family="Times New Roman,serif" font-size="14.00">src.pydasa.structs.types</text>
</g>
<!-- src.pydasa.structs.types.functions -->
<g id="node43" class="node">
<title>src.pydasa.structs.types.functions</title>
<polygon fill="#77aadd" stroke="#77aadd" points="6319.88,-36 6112.62,-36 6112.62,0 6319.88,0 6319.88,-36"/>
<text text-anchor="middle" x="6216.25" y="-12.57" font-family="Times New Roman,serif" font-size="14.00">src.pydasa.structs.types.functions</text>
</g>
<!-- src.pydasa.structs.types.generics -->
<g id="node44" class="node">
<title>src.pydasa.structs.types.generics</title>
<polygon fill="#77aadd" stroke="#77aadd" points="6538.88,-36 6337.62,-36 6337.62,0 6538.88,0 6538.88,-36"/>
<text text-anchor="middle" x="6438.25" y="-12.57" font-family="Times New Roman,serif" font-size="14.00">src.pydasa.structs.types.generics</text>
</g>
<!-- src.pydasa.validations -->
<g id="node45" class="node">
<title>src.pydasa.validations</title>
<polygon fill="#77aadd" stroke="#77aadd" points="6697.12,-36 6557.38,-36 6557.38,0 6697.12,0 6697.12,-36"/>
<text text-anchor="middle" x="6627.25" y="-12.57" font-family="Times New Roman,serif" font-size="14.00">src.pydasa.validations</text>
</g>
<!-- src.pydasa.validations.decorators -->
<g id="node46" class="node">
<title>src.pydasa.validations.decorators</title>
<polygon fill="#77aadd" stroke="#77aadd" points="6919,-36 6715.5,-36 6715.5,0 6919,0 6919,-36"/>
<text text-anchor="middle" x="6817.25" y="-12.57" font-family="Times New Roman,serif" font-size="14.00">src.pydasa.validations.decorators</text>
</g>
<!-- src.pydasa.validations.error -->
<g id="node47" class="node">
<title>src.pydasa.validations.error</title>
<polygon fill="#77aadd" stroke="#77aadd" points="7107.5,-36 6937,-36 6937,0 7107.5,0 7107.5,-36"/>
<text text-anchor="middle" x="7022.25" y="-12.57" font-family="Times New Roman,serif" font-size="14.00">src.pydasa.validations.error</text>
</g>
<!-- src.pydasa.validations.patterns -->
<g id="node48" class="node">
<title>src.pydasa.validations.patterns</title>
<polygon fill="#77aadd" stroke="#77aadd" points="7313.12,-36 7125.38,-36 7125.38,0 7313.12,0 7313.12,-36"/>
<text text-anchor="middle" x="7219.25" y="-12.57" font-family="Times New Roman,serif" font-size="14.00">src.pydasa.validations.patterns</text>
</g>
<!-- src.pydasa.workflows -->
<g id="node49" class="node">
<title>src.pydasa.workflows</title>
<polygon fill="#77aadd" stroke="#77aadd" points="7471.12,-36 7331.38,-36 7331.38,0 7471.12,0 7471.12,-36"/>
<text text-anchor="middle" x="7401.25" y="-12.57" font-family="Times New Roman,serif" font-size="14.00">src.pydasa.workflows</text>
</g>
</g>
</svg>
